# Blender 4.5.3 LTS
# www.blender.org
mtllib lighting_mesh.mtl
o 平面.001
v -1.703773 0.000000 1.703773
v 1.703773 0.000000 1.703773
v -1.703773 0.000000 -1.703773
v 1.703773 0.000000 -1.703773
v -0.568609 -0.010025 0.080182
v 0.379656 -0.010025 -0.080182
v -0.666891 14.234982 0.970832
v 0.494168 14.234982 -0.970832
v -0.510977 13.522732 0.808973
v -0.427756 12.810481 0.847458
v -0.386464 12.098230 0.934771
v -0.517394 11.385980 1.198695
v -0.593014 10.673729 1.007501
v -0.551039 9.961478 0.675391
v -0.299837 9.249228 0.240344
v -0.346441 8.536978 0.259148
v -0.884727 7.824727 0.266292
v -1.148522 7.112476 0.048946
v -1.786490 6.400227 -0.362089
v -2.063205 5.687975 -0.715582
v -0.906799 4.975726 -0.133742
v -0.157537 4.263476 0.213744
v -0.151243 3.551226 0.124738
v -1.213530 2.838975 0.079493
v -1.158952 2.126725 0.157911
v -0.897367 1.414475 0.127819
v -1.212726 0.597307 0.185637
v 0.469640 0.597307 -0.093647
v 1.077761 1.414475 -0.186619
v 0.819398 2.126726 -0.135570
v 0.785985 2.838977 0.035420
v 1.823003 3.551226 0.444378
v 1.713533 4.263477 0.920078
v 0.787235 4.975728 0.929389
v -0.313998 5.687978 0.254107
v 0.048151 6.400228 0.434208
v 0.765437 7.112479 0.629255
v 1.113865 7.824729 0.344539
v 1.493522 8.536980 -0.529442
v 1.156858 9.249229 -1.133847
v 0.580320 9.961480 -0.973500
v 0.315530 10.673731 -0.796300
v 0.192834 11.385982 -0.771294
v 0.248201 12.098232 -1.041709
v 0.422298 12.810482 -1.264598
v 0.561818 13.522732 -1.241566
v 1.992590 -0.332205 0.346003
v 0.000000 0.022602 -1.000000
v -0.000000 1.459725 -2.692982
v 0.195090 0.022602 -0.980785
v 0.525375 1.459725 -2.641237
v 0.382683 0.022602 -0.923879
v 1.030560 1.459725 -2.487991
v 0.555570 0.022602 -0.831470
v 1.496140 1.459725 -2.239132
v 0.707107 0.022602 -0.707107
v 1.904226 1.459725 -1.904226
v 0.831470 0.022602 -0.555570
v 2.239132 1.459725 -1.496140
v 0.923879 0.022602 -0.382683
v 2.487991 1.459725 -1.030560
v 0.980785 0.022602 -0.195090
v 2.641237 1.459725 -0.525375
v 1.000000 0.022602 0.000000
v 2.692982 1.459725 0.000000
v 0.980785 0.022602 0.195090
v 2.641237 1.459725 0.525375
v 0.923879 0.022602 0.382683
v 2.487991 1.459725 1.030560
v 0.831470 0.022602 0.555570
v 2.239132 1.459725 1.496140
v 0.707107 0.022602 0.707107
v 1.904226 1.459725 1.904226
v 0.555570 0.022602 0.831470
v 1.496140 1.459725 2.239132
v 0.382683 0.022602 0.923879
v 1.030560 1.459725 2.487991
v 0.195090 0.022602 0.980785
v 0.525375 1.459725 2.641237
v 0.000000 0.022602 1.000000
v -0.000000 1.459725 2.692982
v -0.195090 0.022602 0.980785
v -0.525375 1.459725 2.641237
v -0.382683 0.022602 0.923879
v -1.030560 1.459725 2.487991
v -0.555570 0.022602 0.831470
v -1.496140 1.459725 2.239132
v -0.707107 0.022602 0.707107
v -1.904226 1.459725 1.904226
v -0.831470 0.022602 0.555570
v -2.239132 1.459725 1.496140
v -0.923879 0.022602 0.382683
v -2.487991 1.459725 1.030560
v -0.980785 0.022602 0.195090
v -2.641237 1.459725 0.525375
v -1.000000 0.022602 0.000000
v -2.692982 1.459725 0.000000
v -0.980785 0.022602 -0.195090
v -2.641237 1.459725 -0.525375
v -0.923879 0.022602 -0.382683
v -2.487991 1.459725 -1.030560
v -0.831470 0.022602 -0.555570
v -2.239132 1.459725 -1.496140
v -0.707107 0.022602 -0.707107
v -1.904226 1.459725 -1.904226
v -0.555570 0.022602 -0.831470
v -1.496140 1.459725 -2.239132
v -0.382683 0.022602 -0.923879
v -1.030560 1.459725 -2.487991
v -0.195090 0.022602 -0.980785
v -0.525375 1.459725 -2.641237
vn -0.0000 1.0000 -0.0000
vn 0.1648 0.0005 0.9863
vn 0.8726 -0.0113 0.4883
vn 0.8892 -0.0205 0.4571
vn 0.9250 -0.0221 0.3794
vn 0.9437 -0.0073 0.3306
vn 0.9324 -0.0171 0.3611
vn 0.8976 -0.0164 0.4405
vn 0.8294 0.0577 0.5557
vn 0.6512 0.2862 0.7029
vn 0.3039 0.4435 0.8432
vn -0.0597 0.2278 0.9719
vn -0.2869 -0.0090 0.9579
vn -0.4130 -0.1189 0.9029
vn -0.4612 -0.1073 0.8808
vn -0.4929 -0.1002 0.8643
vn -0.3525 -0.3292 0.8760
vn -0.1338 -0.2754 0.9520
vn 0.0415 -0.1030 0.9938
vn 0.1134 -0.0344 0.9930
vn 0.1561 -0.0001 0.9877
vn 0.1620 0.0005 0.9868
vn 0.1555 -0.0002 0.9878
vn 0.1226 -0.0264 0.9921
vn -0.0073 -0.1518 0.9884
vn -0.1918 -0.3305 0.9241
vn -0.3019 -0.3503 0.8867
vn -0.4418 -0.2526 0.8608
vn -0.4778 -0.0860 0.8743
vn -0.3735 -0.0915 0.9231
vn -0.2183 0.0630 0.9738
vn 0.0386 0.3253 0.9448
vn 0.3721 0.4414 0.8165
vn 0.6096 0.3291 0.7212
vn 0.7947 0.1087 0.5972
vn 0.8877 -0.0107 0.4603
vn 0.9344 -0.0151 0.3559
vn 0.9425 -0.0093 0.3341
vn 0.9221 -0.0236 0.3862
vn 0.8926 -0.0224 0.4502
vn -0.0000 0.7624 0.6471
vn -0.1263 0.7624 0.6347
vn -0.2477 0.7624 0.5979
vn -0.3595 0.7624 0.5381
vn -0.4576 0.7624 0.4576
vn -0.5381 0.7624 0.3595
vn -0.5979 0.7624 0.2477
vn -0.6347 0.7624 0.1263
vn -0.6471 0.7624 -0.0000
vn -0.6347 0.7624 -0.1263
vn -0.5979 0.7624 -0.2477
vn -0.5381 0.7624 -0.3595
vn -0.4576 0.7624 -0.4576
vn -0.3595 0.7624 -0.5381
vn -0.2477 0.7624 -0.5979
vn -0.1263 0.7624 -0.6347
vn -0.0000 0.7624 -0.6471
vn 0.1263 0.7624 -0.6347
vn 0.2477 0.7624 -0.5979
vn 0.3595 0.7624 -0.5381
vn 0.4576 0.7624 -0.4576
vn 0.5381 0.7624 -0.3595
vn 0.5979 0.7624 -0.2477
vn 0.6347 0.7624 -0.1263
vn 0.6471 0.7624 -0.0000
vn 0.6347 0.7624 0.1263
vn 0.5979 0.7624 0.2477
vn 0.5381 0.7624 0.3595
vn 0.4576 0.7624 0.4576
vn 0.3595 0.7624 0.5381
vn 0.2477 0.7624 0.5979
vn 0.1263 0.7624 0.6347
vt 0.000000 0.000000
vt 1.000000 0.000000
vt 1.000000 1.000000
vt 0.000000 1.000000
vt 0.000000 0.950000
vt 1.000000 0.950000
vt 1.000000 0.050000
vt 0.000000 0.050000
vt 1.000000 0.100000
vt 0.000000 0.100000
vt 1.000000 0.150000
vt 0.000000 0.150000
vt 1.000000 0.200000
vt 0.000000 0.200000
vt 1.000000 0.250000
vt 0.000000 0.250000
vt 1.000000 0.300000
vt 0.000000 0.300000
vt 1.000000 0.350000
vt 0.000000 0.350000
vt 1.000000 0.400000
vt 0.000000 0.400000
vt 1.000000 0.450000
vt 0.000000 0.450000
vt 1.000000 0.500000
vt 0.000000 0.500000
vt 1.000000 0.550000
vt 0.000000 0.550000
vt 1.000000 0.600000
vt 0.000000 0.600000
vt 1.000000 0.650000
vt 0.000000 0.650000
vt 1.000000 0.700000
vt 0.000000 0.700000
vt 1.000000 0.750000
vt 0.000000 0.750000
vt 1.000000 0.800000
vt 0.000000 0.800000
vt 1.000000 0.850000
vt 0.000000 0.850000
vt 1.000000 0.900000
vt 0.000000 0.900000
vt 0.968750 0.000000
vt 0.968750 1.000000
vt 0.937500 0.000000
vt 0.937500 1.000000
vt 0.906250 0.000000
vt 0.906250 1.000000
vt 0.875000 0.000000
vt 0.875000 1.000000
vt 0.843750 0.000000
vt 0.843750 1.000000
vt 0.812500 0.000000
vt 0.812500 1.000000
vt 0.781250 0.000000
vt 0.781250 1.000000
vt 0.750000 0.000000
vt 0.750000 1.000000
vt 0.718750 0.000000
vt 0.718750 1.000000
vt 0.687500 0.000000
vt 0.687500 1.000000
vt 0.656250 0.000000
vt 0.656250 1.000000
vt 0.625000 0.000000
vt 0.625000 1.000000
vt 0.593750 0.000000
vt 0.593750 1.000000
vt 0.562500 0.000000
vt 0.562500 1.000000
vt 0.531250 0.000000
vt 0.531250 1.000000
vt 0.500000 0.000000
vt 0.500000 1.000000
vt 0.468750 0.000000
vt 0.468750 1.000000
vt 0.437500 0.000000
vt 0.437500 1.000000
vt 0.406250 0.000000
vt 0.406250 1.000000
vt 0.375000 0.000000
vt 0.375000 1.000000
vt 0.343750 0.000000
vt 0.343750 1.000000
vt 0.312500 0.000000
vt 0.312500 1.000000
vt 0.281250 0.000000
vt 0.281250 1.000000
vt 0.250000 0.000000
vt 0.250000 1.000000
vt 0.218750 0.000000
vt 0.218750 1.000000
vt 0.187500 0.000000
vt 0.187500 1.000000
vt 0.156250 0.000000
vt 0.156250 1.000000
vt 0.125000 0.000000
vt 0.125000 1.000000
vt 0.093750 0.000000
vt 0.093750 1.000000
vt 0.062500 0.000000
vt 0.062500 1.000000
vt 0.031250 0.000000
vt 0.031250 1.000000
s 1
usemtl 材质.002
f 1/1/1 2/2/1 4/3/1 3/4/1
usemtl 材质
f 9/5/4 46/6/40 8/3/3 7/4/3
f 5/1/2 6/2/2 28/7/22 27/8/22
f 27/8/22 28/7/22 29/9/23 26/10/21
f 26/10/21 29/9/23 30/11/24 25/12/20
f 25/12/20 30/11/24 31/13/25 24/14/19
f 24/14/19 31/13/25 32/15/26 23/16/18
f 23/16/18 32/15/26 33/17/27 22/18/17
f 22/18/17 33/17/27 34/19/28 21/20/16
f 21/20/16 34/19/28 35/21/29 20/22/15
f 20/22/15 35/21/29 36/23/30 19/24/14
f 19/24/14 36/23/30 37/25/31 18/26/13
f 18/26/13 37/25/31 38/27/32 17/28/12
f 17/28/12 38/27/32 39/29/33 16/30/11
f 16/30/11 39/29/33 40/31/34 15/32/10
f 15/32/10 40/31/34 41/33/35 14/34/9
f 14/34/9 41/33/35 42/35/36 13/36/8
f 13/36/8 42/35/36 43/37/37 12/38/7
f 12/38/7 43/37/37 44/39/38 11/40/6
f 11/40/6 44/39/38 45/41/39 10/42/5
f 10/42/5 45/41/39 46/6/40 9/5/4
usemtl 材质.001
f 48/2/41 50/43/42 51/44/42 49/3/41
f 50/43/42 52/45/43 53/46/43 51/44/42
f 52/45/43 54/47/44 55/48/44 53/46/43
f 54/47/44 56/49/45 57/50/45 55/48/44
f 56/49/45 58/51/46 59/52/46 57/50/45
f 58/51/46 60/53/47 61/54/47 59/52/46
f 60/53/47 62/55/48 63/56/48 61/54/47
f 62/55/48 64/57/49 65/58/49 63/56/48
f 64/57/49 66/59/50 67/60/50 65/58/49
f 66/59/50 68/61/51 69/62/51 67/60/50
f 68/61/51 70/63/52 71/64/52 69/62/51
f 70/63/52 72/65/53 73/66/53 71/64/52
f 72/65/53 74/67/54 75/68/54 73/66/53
f 74/67/54 76/69/55 77/70/55 75/68/54
f 76/69/55 78/71/56 79/72/56 77/70/55
f 78/71/56 80/73/57 81/74/57 79/72/56
f 80/73/57 82/75/58 83/76/58 81/74/57
f 82/75/58 84/77/59 85/78/59 83/76/58
f 84/77/59 86/79/60 87/80/60 85/78/59
f 86/79/60 88/81/61 89/82/61 87/80/60
f 88/81/61 90/83/62 91/84/62 89/82/61
f 90/83/62 92/85/63 93/86/63 91/84/62
f 92/85/63 94/87/64 95/88/64 93/86/63
f 94/87/64 96/89/65 97/90/65 95/88/64
f 96/89/65 98/91/66 99/92/66 97/90/65
f 98/91/66 100/93/67 101/94/67 99/92/66
f 100/93/67 102/95/68 103/96/68 101/94/67
f 102/95/68 104/97/69 105/98/69 103/96/68
f 104/97/69 106/99/70 107/100/70 105/98/69
f 106/99/70 108/101/71 109/102/71 107/100/70
f 108/101/71 110/103/72 111/104/72 109/102/71
f 110/103/72 48/1/41 49/4/41 111/104/72
